<?xml version="1.0" encoding="utf-8"?>
<!-- Generator: Adobe Illustrator 16.0.0, SVG Export Plug-In . SVG Version: 6.00 Build 0)  -->
<!DOCTYPE svg PUBLIC "-//W3C//DTD SVG 1.1//EN" "http://www.w3.org/Graphics/SVG/1.1/DTD/svg11.dtd">
<svg version="1.1" id="Layer_1" xmlns="http://www.w3.org/2000/svg" xmlns:xlink="http://www.w3.org/1999/xlink" x="0px" y="0px"
	 width="383.675px" height="59.036px" viewBox="0 0 383.675 59.036" enable-background="new 0 0 383.675 59.036"
	 xml:space="preserve">
<g>
	<g opacity="0.2">
		<polygon points="383.675,19.273 342.106,19.273 342.106,5.002 43.569,5.002 43.569,19.273 2,19.273 17.952,39.153 2,59.036 
			83.558,59.036 83.558,44.779 302.116,44.779 302.116,59.036 383.675,59.036 367.722,39.153 		"/>
	</g>
	<g>
		<polygon fill="#FFFFFF" points="381.675,14.273 340.106,14.273 340.106,0.002 41.569,0.002 41.569,14.273 0,14.273 15.952,34.153 
			0,54.036 81.558,54.036 81.558,39.779 300.116,39.779 300.116,54.036 381.675,54.036 365.722,34.153 		"/>
	</g>
</g>
<polygon fill="#BCC1C5" points="81.558,54.036 0,54.036 15.952,34.153 0,14.273 81.558,14.273 "/>
<polygon fill="#BCC1C5" points="300.116,54.036 381.674,54.036 365.722,34.153 381.674,14.273 300.116,14.273 "/>
<polygon fill="#94999D" points="41.567,39.779 81.558,54.036 81.558,39.779 "/>
<polygon fill="#94999D" points="340.106,39.779 300.116,54.036 300.116,39.779 "/>
<rect x="41.569" y="0.002" fill="#FFFFFF" width="298.537" height="39.777"/>
</svg>
